<svg xmlns="http://www.w3.org/2000/svg" width="12" height="12" viewBox="0 0 12 12">
    <path fill="#6C6A75" fill-rule="evenodd" d="M7.275 6l4.65 4.65c.05.05.075.119.075.206a.279.279 0 0 1-.075.207l-.863.862a.279.279 0 0 1-.206.075.279.279 0 0 1-.206-.075L6 7.275l-4.65 4.65a.279.279 0 0 1-.206.075.279.279 0 0 1-.206-.075l-.863-.863A.279.279 0 0 1 0 10.857c0-.087.025-.156.075-.206L4.725 6 .075 1.35A.279.279 0 0 1 0 1.144C0 1.056.025.988.075.938L.938.075A.279.279 0 0 1 1.143 0c.087 0 .156.025.206.075L6 4.725l4.65-4.65A.279.279 0 0 1 10.856 0c.088 0 .157.025.207.075l.862.863c.05.05.075.118.075.206a.279.279 0 0 1-.075.206L7.275 6z"/>
</svg>
