<?xml version="1.0" encoding="UTF-8"?>
<svg width="40px" height="40px" viewBox="0 0 40 40" version="1.1" xmlns="http://www.w3.org/2000/svg" xmlns:xlink="http://www.w3.org/1999/xlink">
    <!-- Generator: Sketch 53 (72520) - https://sketchapp.com -->
    <title>Bronze123</title>
    <desc>Created with Sketch.</desc>
    <defs>
        <linearGradient x1="50%" y1="0%" x2="50%" y2="100%" id="linearGradient-1">
            <stop stop-color="#DBBA16" offset="0%"></stop>
            <stop stop-color="#B58409" offset="100%"></stop>
        </linearGradient>
        <circle id="path-2" cx="20" cy="20" r="20"></circle>
        <filter x="-50.0%" y="-40.0%" width="200.0%" height="200.0%" filterUnits="objectBoundingBox" id="filter-3">
            <feOffset dx="0" dy="4" in="SourceAlpha" result="shadowOffsetOuter1"></feOffset>
            <feGaussianBlur stdDeviation="6" in="shadowOffsetOuter1" result="shadowBlurOuter1"></feGaussianBlur>
            <feColorMatrix values="0 0 0 0 0.709803922   0 0 0 0 0.517647059   0 0 0 0 0.0352941176  0 0 0 0.24 0" type="matrix" in="shadowBlurOuter1"></feColorMatrix>
        </filter>
    </defs>
    <g id="Bronze123" stroke="none" stroke-width="1" fill="none" fill-rule="evenodd">
        <g id="Group-6" fill-rule="nonzero">
            <g id="Oval">
                <use fill="black" fill-opacity="1" filter="url(#filter-3)" xlink:href="#path-2"></use>
                <use fill="url(#linearGradient-1)" xlink:href="#path-2"></use>
            </g>
            <path d="M16.9375,17.421875 L19.421875,17.421875 C21.3906348,17.421875 22.375,16.458343 22.375,14.53125 C22.375,13.7812462 22.1406273,13.1692732 21.671875,12.6953125 C21.2031227,12.2213518 20.5416709,11.984375 19.6875,11.984375 C18.9895798,11.984375 18.3828151,12.187498 17.8671875,12.59375 C17.3515599,13.000002 17.09375,13.5052053 17.09375,14.109375 L11.828125,14.109375 C11.828125,12.9114523 12.161455,11.8437547 12.828125,10.90625 C13.494795,9.96874531 14.4192649,9.2369818 15.6015625,8.7109375 C16.7838601,8.1848932 18.0833262,7.921875 19.5,7.921875 C22.0312627,7.921875 24.0208261,8.49999422 25.46875,9.65625 C26.9166739,10.8125058 27.640625,12.4010316 27.640625,14.421875 C27.640625,15.4010466 27.3411488,16.3255165 26.7421875,17.1953125 C26.1432262,18.0651085 25.2708391,18.7708306 24.125,19.3125 C25.3333394,19.7500022 26.2812466,20.414058 26.96875,21.3046875 C27.6562534,22.195317 28,23.2968684 28,24.609375 C28,26.6406352 27.2187578,28.2656189 25.65625,29.484375 C24.0937422,30.7031311 22.0416794,31.3125 19.5,31.3125 C18.0104092,31.3125 16.6276105,31.0286487 15.3515625,30.4609375 C14.0755145,29.8932263 13.1093783,29.1067759 12.453125,28.1015625 C11.7968717,27.0963491 11.46875,25.9531314 11.46875,24.671875 L16.765625,24.671875 C16.765625,25.3697952 17.0468722,25.9739558 17.609375,26.484375 C18.1718778,26.9947942 18.8645792,27.25 19.6875,27.25 C20.614588,27.25 21.3541639,26.9921901 21.90625,26.4765625 C22.4583361,25.9609349 22.734375,25.3020873 22.734375,24.5 C22.734375,23.3541609 22.4479195,22.5416691 21.875,22.0625 C21.3020805,21.5833309 20.5104217,21.34375 19.5,21.34375 L16.9375,21.34375 L16.9375,17.421875 Z" id="3" fill="#FFFFFF"></path>
        </g>
    </g>
</svg>