<svg xmlns="http://www.w3.org/2000/svg" width="16" height="16" viewBox="0 0 16 16">
    <g fill="none" fill-rule="evenodd">
        <rect width="16" height="16" fill="#2A65B0" fill-rule="nonzero" rx="2"/>
        <path fill="#FFF" d="M12.922 3.02a.296.296 0 0 1 .219-.082.4.4 0 0 1 .246.082l.765.793a.26.26 0 0 1 .11.218.34.34 0 0 1-.11.246L5.95 12.48a.296.296 0 0 1-.219.083.4.4 0 0 1-.246-.083L1.848 8.816a.26.26 0 0 1-.11-.218.34.34 0 0 1 .11-.246l.765-.766a.34.34 0 0 1 .246-.11.26.26 0 0 1 .22.11l2.651 2.652 7.192-7.218z"/>
    </g>
</svg>
