<svg id="Layer_1" data-name="Layer 1" xmlns="http://www.w3.org/2000/svg" viewBox="0 0 168.7 168.7"><title>Untitled-2</title><path d="M84.35,3A81.35,81.35,0,1,1,3,84.35,81.44,81.44,0,0,1,84.35,3m0-2A83.35,83.35,0,1,0,167.7,84.35,83.35,83.35,0,0,0,84.35,1Z" style="fill:#231f20"/><circle cx="84.35" cy="84.35" r="58.44" transform="translate(-34.94 84.35) rotate(-45)" style="fill:#02b4e4"/><path d="M84.35,26.41A57.94,57.94,0,1,1,26.41,84.35,58,58,0,0,1,84.35,26.41m0-1a58.94,58.94,0,1,0,58.93,58.94A58.94,58.94,0,0,0,84.35,25.41Z" style="fill:#414042"/></svg>